SplineFontDB: 3.0
FontName: Capitan-Regular
FullName: Capitan Regular
FamilyName: Capitan
Weight: Regular
Copyright: Copyright \\(c\\) 2015, David Rizo Valero
Version: 001.000
ItalicAngle: 0
UnderlinePosition: -150
UnderlineWidth: 50
Ascent: 800
Descent: 200
InvalidEm: 0
sfntRevision: 0x00010000
LayerCount: 2
Layer: 0 0 "Back" 1
Layer: 1 0 "Fore" 0
XUID: [1021 426 -2124310150 7150829]
FSType: 8
OS2Version: 3
OS2_WeightWidthSlopeOnly: 0
OS2_UseTypoMetrics: 1
CreationTime: 1506426459
ModificationTime: 1506426459
PfmFamily: 17
TTFWeight: 400
TTFWidth: 5
LineGap: 0
VLineGap: 0
Panose: 2 0 5 3 0 0 0 0 0 0
OS2TypoAscent: 800
OS2TypoAOffset: 0
OS2TypoDescent: -200
OS2TypoDOffset: 0
OS2TypoLinegap: 90
OS2WinAscent: 722
OS2WinAOffset: 0
OS2WinDescent: 1069
OS2WinDOffset: 0
HheadAscent: 722
HheadAOffset: 0
HheadDescent: -1069
HheadDOffset: 0
OS2SubXSize: 650
OS2SubYSize: 600
OS2SubXOff: 0
OS2SubYOff: 75
OS2SupXSize: 650
OS2SupYSize: 600
OS2SupXOff: 0
OS2SupYOff: 350
OS2StrikeYSize: 50
OS2StrikeYPos: 126
OS2CapHeight: 232
OS2XHeight: 210
OS2Vendor: 'PfEd'
OS2CodePages: 00000001.00000000
OS2UnicodeRanges: 00000001.00000000.00000000.00000000
Lookup: 1 0 0 "" { } []
DEI: 91125
LangName: 1033 "Copyright (c) 2015, David Rizo Valero" "" "" "1.000;PfEd;Capitan-Regular" "Capitan-Regular" "Version 1.000;PS 001.000;hotconv 1.0.88;makeotf.lib2.5.64775" "" "" "" "Beatriz Pascual Hern+AOEA-ndez" "" "" "http://beatrizpascual.net/"
Encoding: Custom
UnicodeInterp: none
NameList: AGL For New Fonts
DisplaySize: -128
AntiAlias: 1
FitToEm: 1
WinInfo: 110 10 4
BeginPrivate: 3
BlueValues 16 [-929 0 125 250]
BlueScale 5 0.037
BlueFuzz 1 0
EndPrivate
BeginChars: 65540 44

StartChar: .notdef
Encoding: 65536 -1 0
Width: 364
Flags: W
LayerCount: 2
Back
Fore
SplineSet
298 666 m 1
 298 0 l 1
 33 0 l 1
 33 666 l 1
 298 666 l 1
265 633 m 1
 66 633 l 1
 66 33 l 1
 265 33 l 1
 265 633 l 1
EndSplineSet
EndChar

StartChar: plus
Encoding: 43 43 1
Width: 301
Flags: W
LayerCount: 2
Back
Fore
SplineSet
229 -9 m 1
 242 -3 254 2 265 7 c 0
 275 12 283 15 289 17 c 0
 295 19 298 19 298 18 c 0
 298 15 296 7 293 -7 c 0
 289 -20 286 -27 285 -27 c 0
 282 -28 278 -30 273 -33 c 0
 268 -35 264 -37 260 -40 c 0
 255 -42 251 -44 248 -45 c 0
 246 -46 243 -47 239 -49 c 0
 234 -51 231 -53 229 -54 c 0
 228 -95 228 -132 228 -164 c 0
 228 -165 221 -171 206 -182 c 0
 191 -193 183 -198 182 -198 c 0
 180 -198 179 -157 179 -76 c 1
 162 -85 141 -95 117 -105 c 1
 117 -125 l 1
 117 -141 l 2
 117 -146 117 -150 117 -153 c 0
 116 -156 116 -159 116 -161 c 2
 116 -164 l 2
 116 -165 109 -171 95 -182 c 0
 80 -193 72 -198 71 -198 c 0
 70 -198 70 -174 69 -126 c 1
 48 -135 31 -143 19 -148 c 0
 7 -153 1 -154 1 -153 c 0
 1 -151 2 -143 5 -130 c 0
 8 -116 11 -109 12 -109 c 0
 13 -109 32 -100 68 -83 c 1
 68 19 l 1
 45 9 28 2 17 -3 c 0
 6 -7 1 -8 1 -7 c 0
 1 -5 2 3 5 17 c 0
 8 30 11 37 12 37 c 0
 14 37 33 46 68 63 c 1
 68 177 l 2
 68 178 72 182 80 189 c 0
 87 196 95 204 104 211 c 0
 112 218 117 221 118 221 c 0
 119 221 119 176 118 87 c 1
 179 115 l 1
 179 177 l 2
 179 178 187 186 202 200 c 0
 217 214 226 221 229 221 c 0
 230 221 230 193 230 138 c 1
 252 148 269 155 281 160 c 0
 292 164 298 165 298 164 c 0
 298 163 297 158 296 151 c 0
 294 144 292 136 290 129 c 0
 287 122 286 118 285 118 c 2
 249 101 l 1
 230 93 l 1
 229 71 229 37 229 -9 c 1
118 -60 m 1
 125 -57 135 -52 149 -46 c 0
 162 -39 172 -34 179 -31 c 1
 179 69 l 1
 118 42 l 1
 118 -11 l 1
 118 -60 l 1
EndSplineSet
EndChar

StartChar: hyphen
Encoding: 45 45 2
Width: 191
Flags: W
LayerCount: 2
Back
Fore
SplineSet
153 147 m 0
 160 147 165 146 169 144 c 0
 173 141 177 136 180 128 c 0
 183 120 186 108 188 91 c 0
 189 74 190 51 190 24 c 0
 190 0 179 -26 158 -54 c 0
 136 -82 111 -105 84 -123 c 0
 56 -140 33 -149 15 -149 c 0
 4 -149 -1 6 -1 317 c 0
 -1 412 27 460 84 460 c 2
 86 460 l 1
 94 459 l 2
 94 458 93 457 91 456 c 0
 64 435 51 400 50 352 c 0
 50 347 50 317 49 264 c 0
 48 211 48 169 48 139 c 0
 47 108 48 87 49 75 c 0
 50 75 53 78 58 83 c 0
 63 88 70 94 78 101 c 0
 86 108 95 115 104 122 c 0
 113 129 122 135 131 140 c 0
 140 145 148 147 153 147 c 0
76 -103 m 0
 81 -103 89 -100 100 -94 c 0
 111 -88 121 -80 130 -69 c 0
 139 -58 144 -48 144 -39 c 0
 144 16 142 53 138 70 c 0
 134 87 126 96 113 96 c 0
 105 96 93 89 76 75 c 0
 59 60 51 50 52 43 c 0
 52 38 52 31 53 22 c 0
 54 -27 56 -60 59 -77 c 0
 62 -94 67 -103 76 -103 c 0
EndSplineSet
EndChar

StartChar: period
Encoding: 46 46 3
Width: 66
Flags: W
LayerCount: 2
Back
Fore
SplineSet
34 50 m 0
 25 50 17 53 10 59 c 0
 3 65 0 73 0 82 c 0
 0 91 4 99 11 105 c 0
 18 111 25 114 34 114 c 0
 43 114 50 111 57 105 c 0
 63 99 66 91 66 82 c 0
 66 73 63 65 57 59 c 0
 50 53 43 50 34 50 c 0
EndSplineSet
EndChar

StartChar: equal
Encoding: 61 61 4
Width: 168
Flags: W
LayerCount: 2
Back
Fore
SplineSet
160 184 m 0
 165 184 168 181 168 176 c 2
 168 -326 l 2
 168 -334 164 -338 156 -338 c 2
 143 -338 l 2
 135 -338 131 -334 131 -326 c 2
 131 -177 l 2
 131 -170 125 -166 114 -166 c 0
 95 -166 62 -176 15 -196 c 1
 12 -197 l 1
 10 -198 l 1
 8 -198 l 2
 3 -198 0 -195 0 -189 c 2
 0 326 l 2
 0 334 4 338 12 338 c 2
 25 338 l 2
 33 338 37 334 37 326 c 2
 37 159 l 2
 37 156 40 154 47 154 c 0
 55 154 67 156 82 160 c 0
 97 164 109 168 120 172 c 2
 137 177 l 1
 138 178 l 1
 141 178 l 1
 156 183 l 2
 157 184 158 184 160 184 c 0
43 -92 m 2
 44 -92 45 -92 46 -93 c 0
 47 -93 48 -93 49 -93 c 0
 66 -93 86 -87 110 -74 c 1
 95 -59 l 2
 94 -58 93 -56 93 -53 c 0
 93 -50 94 -48 95 -47 c 2
 106 -36 l 2
 107 -35 109 -34 111 -34 c 0
 112 -34 114 -35 117 -36 c 2
 131 -50 l 1
 131 56 l 1
 117 42 l 2
 116 41 114 40 111 40 c 0
 108 40 107 41 106 42 c 2
 95 53 l 2
 94 54 93 55 93 58 c 0
 93 61 94 63 95 64 c 2
 127 96 l 1
 122 96 l 2
 105 96 86 90 63 78 c 1
 76 64 l 2
 77 61 78 59 78 58 c 0
 78 56 77 54 76 53 c 2
 65 42 l 2
 64 41 63 41 61 41 c 2
 54 42 l 1
 49 47 45 50 42 53 c 0
 39 56 37 57 37 56 c 2
 37 -52 l 1
 54 -36 l 2
 55 -35 57 -34 59 -34 c 0
 60 -34 62 -35 65 -36 c 2
 76 -47 l 2
 77 -50 78 -52 78 -53 c 0
 78 -54 77 -56 76 -59 c 2
 43 -92 l 2
EndSplineSet
EndChar

StartChar: A
Encoding: 65 65 5
Width: 172
Flags: W
LayerCount: 2
Back
Fore
SplineSet
166 500 m 1
 166 497 166 338 167 22 c 0
 168 -294 168 -452 168 -453 c 0
 168 -454 159 -462 142 -477 c 0
 125 -492 116 -499 115 -499 c 2
 113 -249 l 2
 112 -82 111 74 111 217 c 0
 110 360 110 444 111 467 c 0
 112 467 114 468 119 471 c 0
 120 472 125 475 135 481 c 0
 145 487 155 493 166 500 c 1
55 500 m 1
 55 497 56 338 57 22 c 0
 58 -294 58 -452 58 -453 c 0
 58 -454 50 -462 33 -477 c 0
 16 -492 6 -499 5 -499 c 0
 4 -499 4 -416 3 -249 c 0
 2 -82 1 74 1 217 c 0
 0 360 0 444 1 467 c 0
 2 467 4 468 8 471 c 0
 9 472 15 475 25 481 c 0
 35 487 45 493 55 500 c 1
EndSplineSet
EndChar

StartChar: B
Encoding: 66 66 6
Width: 59
Flags: W
LayerCount: 2
Back
Fore
SplineSet
55 500 m 1
 55 498 56 340 57 24 c 0
 58 -291 58 -448 58 -449 c 0
 58 -450 49 -458 32 -474 c 0
 15 -490 6 -498 5 -498 c 0
 4 -498 3 -337 2 -16 c 0
 0 306 -1 467 0 468 c 0
 1 468 20 479 55 500 c 1
EndSplineSet
EndChar

StartChar: C
Encoding: 67 67 7
Width: 26
Flags: W
LayerCount: 2
Back
Fore
SplineSet
0 226 m 0
 0 227 4 231 12 238 c 0
 19 245 23 249 24 249 c 0
 25 249 25 175 25 26 c 0
 25 25 24 24 22 21 c 0
 19 18 17 16 14 13 c 2
 6 5 l 2
 3 2 2 1 1 1 c 0
 0 1 0 76 0 226 c 0
EndSplineSet
EndChar

StartChar: D
Encoding: 68 68 8
Width: 27
Flags: W
LayerCount: 2
Back
Fore
SplineSet
0 226 m 0
 0 227 4 231 12 239 c 0
 20 246 24 250 25 250 c 0
 26 250 26 217 26 150 c 0
 26 149 22 145 14 137 c 0
 6 129 2 125 1 125 c 0
 0 125 0 159 0 226 c 0
EndSplineSet
EndChar

StartChar: E
Encoding: 69 69 9
Width: 34
Flags: W
LayerCount: 2
Back
Fore
SplineSet
1 95 m 2
 1 96 6 101 17 111 c 0
 27 120 32 125 33 125 c 0
 34 125 34 94 33 31 c 0
 33 30 28 24 18 14 c 0
 8 4 2 -1 1 -1 c 2
 1 95 l 2
EndSplineSet
EndChar

StartChar: F
Encoding: 70 70 10
Width: 138
Flags: W
LayerCount: 2
Back
Fore
SplineSet
137 168 m 0
 137 167 130 154 117 129 c 1
 37 85 l 1
 37 40 l 2
 37 39 31 32 20 19 c 0
 9 6 2 0 1 0 c 0
 0 0 0 41 0 123 c 0
 0 124 6 130 17 142 c 0
 28 154 34 160 35 160 c 0
 36 160 36 147 36 120 c 1
 52 128 73 138 99 151 c 0
 124 163 137 169 137 168 c 0
EndSplineSet
EndChar

StartChar: G
Encoding: 71 71 11
Width: 152
Flags: W
LayerCount: 2
Back
Fore
SplineSet
150 158 m 0
 151 158 152 118 152 39 c 0
 152 38 146 31 134 19 c 0
 121 6 114 0 113 0 c 0
 112 0 112 29 112 87 c 1
 93 96 64 111 23 131 c 1
 1 168 l 2
 1 169 15 164 42 153 c 0
 69 141 93 131 112 122 c 0
 113 123 116 127 123 133 c 0
 129 139 135 145 141 150 c 0
 146 155 149 158 150 158 c 0
EndSplineSet
EndChar

StartChar: H
Encoding: 72 72 12
Width: 151
Flags: W
LayerCount: 2
Back
Fore
SplineSet
149 159 m 0
 150 159 151 119 151 40 c 0
 151 39 145 32 133 20 c 0
 120 7 113 1 112 1 c 2
 110 41 l 1
 97 48 80 57 58 69 c 1
 36 106 l 2
 36 107 45 103 63 96 c 0
 81 88 97 81 110 75 c 1
 110 88 l 1
 92 97 63 112 22 132 c 1
 0 169 l 2
 0 170 14 165 41 154 c 0
 68 142 92 132 111 123 c 0
 112 124 115 128 122 134 c 0
 128 140 134 146 140 151 c 0
 145 156 148 159 149 159 c 0
EndSplineSet
EndChar

StartChar: bracketleft
Encoding: 91 91 14
Width: 676
Flags: W
LayerCount: 2
Back
Fore
SplineSet
9 0 m 0
 8 0 6 2 3 6 c 0
 0 9 -1 12 -1 14 c 0
 -1 15 1 21 4 32 c 0
 7 43 13 58 21 77 c 0
 29 96 39 116 51 137 c 0
 63 158 79 179 99 201 c 0
 119 223 141 243 166 261 c 0
 190 278 220 293 255 304 c 0
 290 315 328 321 368 321 c 0
 404 321 437 317 468 309 c 0
 499 300 524 289 545 276 c 0
 566 263 584 248 601 231 c 0
 617 214 630 197 639 181 c 0
 648 165 655 150 661 135 c 0
 667 120 671 109 673 101 c 0
 675 93 676 88 676 86 c 0
 676 82 668 67 653 41 c 0
 637 14 628 1 626 1 c 0
 625 1 624 5 623 12 c 0
 621 23 619 33 618 41 c 0
 616 49 612 62 606 80 c 0
 599 98 592 114 584 127 c 0
 576 140 564 155 549 172 c 0
 533 188 516 201 497 212 c 0
 478 223 453 232 424 239 c 0
 395 246 363 250 328 250 c 0
 299 250 271 245 244 236 c 0
 217 227 193 215 173 200 c 0
 152 185 133 169 115 152 c 0
 97 134 82 116 69 99 c 0
 56 81 46 65 37 50 c 0
 28 35 22 23 17 14 c 0
 12 5 10 0 9 0 c 0
370 136 m 0
 370 144 368 151 365 158 c 0
 362 164 357 169 351 173 c 0
 344 176 337 178 329 178 c 0
 318 178 308 174 300 166 c 0
 291 157 287 147 287 136 c 0
 287 124 291 114 300 107 c 0
 308 99 318 95 329 95 c 0
 341 95 351 99 359 107 c 0
 366 114 370 124 370 136 c 0
EndSplineSet
EndChar

StartChar: bracketright
Encoding: 93 93 15
Width: 655
Flags: W
LayerCount: 2
Back
Fore
SplineSet
641 7 m 2
 643 7 645 5 648 1 c 0
 651 -3 652 -6 652 -7 c 0
 652 -12 652 -19 651 -28 c 0
 650 -36 648 -52 644 -76 c 0
 640 -99 634 -122 627 -144 c 0
 620 -165 608 -189 592 -215 c 0
 576 -241 557 -264 536 -283 c 0
 514 -302 485 -317 450 -330 c 0
 415 -343 375 -349 332 -349 c 0
 293 -349 257 -345 224 -336 c 0
 191 -327 163 -315 141 -301 c 0
 118 -286 98 -270 80 -252 c 0
 63 -233 49 -215 39 -198 c 0
 30 -181 22 -164 15 -148 c 0
 8 -132 4 -120 2 -111 c 0
 0 -102 -1 -97 -1 -94 c 0
 -1 -92 1 -86 6 -77 c 0
 11 -67 17 -57 24 -46 c 0
 31 -35 37 -26 43 -17 c 0
 49 -8 52 -3 53 -3 c 0
 54 -3 55 -8 56 -18 c 0
 57 -28 60 -41 64 -57 c 0
 69 -73 75 -91 83 -110 c 0
 91 -129 103 -148 119 -167 c 0
 134 -186 153 -204 175 -220 c 0
 196 -235 225 -248 260 -258 c 0
 295 -268 333 -273 376 -273 c 0
 407 -273 436 -268 463 -258 c 0
 489 -247 511 -234 529 -218 c 0
 546 -201 562 -183 576 -163 c 0
 589 -143 600 -123 608 -103 c 0
 616 -83 623 -65 628 -49 c 0
 633 -32 636 -19 638 -9 c 2
 641 7 l 2
343 -153 m 0
 331 -153 321 -149 312 -140 c 0
 303 -131 298 -120 298 -108 c 0
 298 -96 303 -86 312 -77 c 0
 321 -68 331 -63 343 -63 c 0
 356 -63 366 -67 375 -76 c 0
 384 -85 388 -95 388 -108 c 0
 388 -121 384 -131 375 -140 c 0
 366 -149 356 -153 343 -153 c 0
EndSplineSet
EndChar

StartChar: a
Encoding: 97 97 16
Width: 370
Flags: W
LayerCount: 2
Back
Fore
SplineSet
368 -448 m 1
 362 -453 356 -458 351 -463 c 0
 346 -468 341 -471 338 -474 c 0
 335 -477 332 -479 329 -482 c 0
 326 -484 324 -486 323 -487 c 0
 322 -488 320 -489 318 -490 c 0
 317 -491 317 -491 316 -491 c 2
 316 -485 l 1
 316 -466 l 1
 316 -438 l 2
 316 -427 316 -415 316 -400 c 0
 315 -385 315 -370 315 -355 c 0
 315 -339 315 -321 315 -302 c 0
 314 -282 314 -263 314 -244 c 1
 308 -244 265 -242 184 -238 c 0
 103 -233 61 -231 57 -231 c 1
 57 -448 l 1
 50 -455 43 -461 37 -467 c 0
 30 -472 25 -477 21 -481 c 0
 16 -484 13 -486 12 -487 c 0
 11 -488 9 -489 8 -490 c 0
 7 -491 6 -491 5 -491 c 1
 5 -437 4 -266 3 23 c 0
 2 312 0 456 -1 456 c 2
 57 498 l 1
 57 251 l 1
 66 251 107 249 182 246 c 0
 256 243 299 241 312 241 c 1
 312 281 l 1
 312 319 l 2
 312 330 312 342 312 353 c 0
 311 364 311 374 311 383 c 0
 311 392 311 400 311 408 c 0
 310 415 310 422 310 428 c 2
 310 443 l 2
 310 447 310 450 310 453 c 2
 309 456 l 1
 368 498 l 1
 368 -448 l 1
57 -60 m 1
 66 -60 109 -62 185 -65 c 0
 260 -68 303 -70 314 -70 c 1
 314 -11 314 34 313 65 c 1
 302 65 257 67 179 71 c 0
 100 75 60 77 57 77 c 2
 57 -60 l 1
312 176 m 1
 299 176 254 178 177 183 c 0
 100 187 60 189 57 189 c 2
 57 139 l 1
 73 139 116 138 185 135 c 0
 254 132 297 130 313 129 c 1
 313 134 313 142 313 153 c 0
 312 164 312 171 312 176 c 1
57 -169 m 1
 70 -170 112 -172 183 -175 c 0
 254 -178 298 -179 314 -179 c 1
 314 -135 l 1
 306 -135 262 -133 182 -129 c 0
 102 -125 60 -123 57 -123 c 2
 57 -169 l 1
EndSplineSet
EndChar

StartChar: b
Encoding: 98 98 17
Width: 370
Flags: W
LayerCount: 2
Back
Fore
SplineSet
362 11 m 0
 362 -46 345 -93 311 -132 c 0
 277 -170 235 -191 185 -194 c 1
 188 -359 190 -457 190 -488 c 0
 190 -523 187 -553 180 -579 c 0
 173 -605 164 -625 153 -638 c 0
 142 -651 130 -661 119 -668 c 0
 107 -675 95 -678 84 -678 c 0
 54 -678 39 -656 39 -611 c 0
 39 -594 49 -575 69 -552 c 0
 84 -535 92 -532 92 -544 c 0
 92 -547 91 -552 90 -559 c 0
 88 -566 86 -572 85 -578 c 0
 84 -584 83 -590 82 -596 c 0
 81 -602 82 -607 85 -611 c 0
 88 -614 92 -616 98 -616 c 0
 128 -616 145 -576 149 -497 c 0
 153 -417 149 -315 138 -192 c 1
 95 -184 60 -163 35 -129 c 0
 10 -94 -3 -49 -3 6 c 0
 -3 17 -1 29 2 43 c 0
 5 58 10 72 16 87 c 0
 21 103 28 118 35 135 c 0
 42 151 50 166 57 181 c 0
 64 195 72 209 79 223 c 0
 86 236 93 248 98 258 c 0
 103 267 108 275 112 281 c 0
 115 287 117 290 117 291 c 0
 117 311 117 348 118 402 c 0
 119 456 119 506 120 552 c 0
 121 598 121 621 121 622 c 0
 121 637 133 657 158 683 c 0
 182 708 201 721 214 721 c 0
 235 721 250 711 261 691 c 0
 272 671 277 647 276 618 c 0
 276 606 274 591 270 574 c 0
 266 557 261 539 255 522 c 0
 249 504 242 486 235 468 c 0
 228 449 220 432 213 416 c 0
 205 400 198 386 192 373 c 0
 186 360 181 350 178 343 c 2
 172 331 l 2
 172 332 172 324 173 307 c 0
 173 290 174 265 175 230 c 0
 176 195 176 159 177 120 c 1
 194 127 211 131 230 131 c 0
 255 131 277 127 296 118 c 0
 315 109 329 97 338 84 c 0
 347 71 353 58 357 46 c 0
 360 33 362 22 362 11 c 0
187 684 m 0
 184 684 178 677 168 664 c 0
 158 650 153 640 153 633 c 0
 153 613 155 568 160 498 c 0
 164 428 168 393 171 394 c 0
 174 394 180 406 191 431 c 0
 202 456 212 486 223 522 c 0
 233 557 237 586 236 609 c 0
 235 624 231 638 225 650 c 0
 218 662 212 671 205 676 c 0
 198 681 192 684 187 684 c 0
44 21 m 0
 44 -21 53 -55 70 -80 c 0
 87 -105 108 -123 134 -134 c 1
 131 -81 127 -25 124 34 c 1
 111 23 98 4 84 -21 c 1
 84 -12 87 2 93 22 c 0
 99 42 109 61 122 78 c 1
 121 99 120 133 120 178 c 2
 120 259 l 1
 99 220 82 179 67 136 c 0
 52 93 44 54 44 21 c 0
190 -146 m 2
 229 -146 259 -136 280 -117 c 0
 301 -97 311 -70 311 -35 c 0
 311 -10 300 12 277 31 c 0
 254 51 226 61 193 61 c 0
 186 61 181 61 178 60 c 0
 179 47 180 -21 183 -146 c 1
 190 -146 l 2
EndSplineSet
EndChar

StartChar: c
Encoding: 99 99 18
Width: 410
Flags: W
LayerCount: 2
Back
Fore
SplineSet
146 -47 m 2
 146 -49 146 -53 145 -58 c 0
 144 -63 141 -69 138 -78 c 0
 134 -86 129 -94 124 -102 c 0
 119 -109 111 -116 102 -121 c 0
 93 -126 82 -129 70 -129 c 0
 55 -129 43 -126 33 -120 c 0
 23 -114 16 -105 12 -94 c 0
 7 -83 4 -72 3 -61 c 0
 1 -50 0 -37 0 -22 c 0
 0 29 23 75 68 116 c 0
 113 157 164 177 223 177 c 0
 254 177 282 171 307 160 c 0
 331 148 350 132 364 113 c 0
 377 94 388 73 395 50 c 0
 402 27 405 4 405 -20 c 0
 405 -47 400 -81 389 -122 c 0
 378 -163 365 -205 348 -248 c 0
 331 -291 312 -336 291 -383 c 0
 270 -429 250 -472 229 -513 c 0
 208 -554 188 -590 171 -623 c 0
 153 -655 138 -681 126 -700 c 0
 113 -719 106 -728 104 -728 c 0
 103 -728 103 -728 103 -727 c 0
 102 -726 102 -725 103 -724 c 2
 104 -719 l 2
 104 -717 104 -715 104 -713 c 2
 104 -708 l 2
 104 -705 117 -678 142 -628 c 0
 167 -577 194 -521 224 -459 c 0
 253 -396 281 -329 306 -257 c 0
 331 -185 343 -128 343 -87 c 0
 343 -31 326 14 291 48 c 0
 256 82 216 99 173 99 c 0
 109 99 67 78 46 37 c 0
 32 9 32 -17 46 -40 c 0
 55 -54 66 -61 81 -61 c 0
 88 -61 95 -61 102 -61 c 0
 109 -60 114 -60 118 -59 c 0
 122 -58 126 -57 130 -56 c 0
 133 -55 136 -54 138 -53 c 0
 139 -52 141 -51 142 -50 c 0
 143 -49 144 -48 145 -48 c 0
 146 -47 146 -47 146 -46 c 2
 146 -47 l 2
EndSplineSet
EndChar

StartChar: d
Encoding: 100 100 19
Width: 488
Flags: W
LayerCount: 2
Back
Fore
SplineSet
224 180 m 2
 232 180 236 174 236 161 c 2
 236 -944 l 2
 236 -952 235 -957 233 -959 c 0
 231 -961 228 -962 224 -962 c 2
 216 -962 l 2
 213 -962 211 -962 210 -962 c 0
 209 -961 207 -960 206 -957 c 0
 205 -954 204 -950 204 -944 c 2
 204 -158 l 1
 199 -143 190 -135 177 -135 c 2
 56 -135 l 2
 53 -135 50 -135 48 -136 c 0
 46 -136 43 -138 40 -142 c 0
 37 -145 34 -151 33 -158 c 2
 33 -176 l 2
 33 -183 29 -186 21 -186 c 2
 12 -186 l 2
 4 -186 0 -183 0 -176 c 2
 0 170 l 2
 0 177 4 180 12 180 c 2
 21 180 l 2
 29 180 33 177 33 170 c 2
 33 160 l 2
 36 138 44 127 57 127 c 2
 174 127 l 2
 191 127 201 140 204 166 c 0
 205 175 209 180 216 180 c 2
 224 180 l 2
174 -53 m 2
 191 -53 201 -41 204 -16 c 2
 204 22 l 1
 199 37 190 45 177 45 c 2
 56 45 l 2
 53 45 50 45 48 45 c 0
 46 44 43 42 40 39 c 0
 37 35 34 29 33 22 c 2
 33 -20 l 2
 36 -42 44 -53 57 -53 c 2
 174 -53 l 2
430 5 m 0
 454 -38 470 -67 479 -81 c 0
 484 -88 486 -96 486 -105 c 2
 484 -117 l 1
 454 -174 427 -221 404 -258 c 0
 396 -270 388 -279 380 -285 c 1
 380 -1059 l 2
 380 -1066 377 -1069 370 -1069 c 2
 357 -1069 l 2
 350 -1069 347 -1066 347 -1059 c 2
 347 -280 l 1
 342 -272 l 2
 340 -269 329 -250 308 -215 c 0
 287 -180 275 -160 272 -156 c 0
 269 -153 268 -148 268 -142 c 0
 268 -138 269 -133 272 -126 c 2
 327 -28 l 2
 330 -25 331 -22 331 -20 c 0
 331 -17 330 -14 327 -11 c 0
 325 -8 316 8 301 35 c 0
 286 62 277 78 274 83 c 0
 270 90 268 96 268 99 c 0
 268 101 269 104 271 107 c 0
 273 110 274 113 274 115 c 2
 354 255 l 2
 361 270 369 280 378 284 c 1
 378 581 l 2
 378 588 381 591 388 591 c 2
 401 591 l 2
 408 591 411 588 411 581 c 2
 411 273 l 1
 417 265 l 2
 421 259 432 240 450 209 c 0
 468 178 479 159 482 152 c 0
 486 144 488 137 488 132 c 0
 488 129 487 125 485 121 c 2
 429 26 l 2
 427 22 426 19 426 16 c 0
 426 14 427 10 430 5 c 0
429 97 m 1
 367 201 l 1
 328 135 l 1
 389 29 l 1
 429 97 l 1
367 -34 m 1
 328 -100 l 1
 389 -206 l 1
 429 -138 l 1
 367 -34 l 1
EndSplineSet
EndChar

StartChar: e
Encoding: 101 101 20
Width: 640
Flags: W
LayerCount: 2
Back
Fore
SplineSet
567 -287 m 0
 568 -287 575 -283 587 -274 c 0
 602 -264 610 -260 611 -261 c 0
 611 -266 604 -279 589 -302 c 0
 574 -325 564 -336 561 -336 c 0
 560 -336 527 -337 463 -338 c 0
 398 -339 365 -340 363 -340 c 0
 360 -340 364 -334 375 -321 c 0
 386 -308 402 -291 421 -270 c 0
 440 -249 460 -226 480 -202 c 0
 499 -177 516 -152 530 -125 c 0
 544 -98 551 -74 551 -55 c 0
 551 -45 549 -36 546 -29 c 0
 543 -22 538 -16 533 -12 c 0
 528 -7 521 -4 514 -1 c 0
 507 2 499 3 492 4 c 0
 485 5 477 5 470 5 c 0
 463 5 456 5 451 4 c 0
 445 3 440 3 436 2 c 2
 430 1 l 2
 427 1 437 19 460 55 c 0
 483 91 506 127 531 164 c 0
 555 200 567 219 567 220 c 0
 567 221 537 222 476 223 c 0
 415 224 384 225 383 224 c 0
 382 224 368 211 341 186 c 0
 313 161 298 148 297 148 c 0
 296 148 289 149 278 151 c 0
 266 153 253 155 240 156 c 0
 227 157 211 158 194 159 c 0
 177 159 160 157 145 152 c 0
 130 147 115 139 102 130 c 0
 89 120 78 105 70 86 c 0
 62 66 58 42 58 15 c 0
 58 -14 65 -39 80 -60 c 0
 94 -81 112 -97 134 -107 c 0
 155 -117 178 -122 202 -122 c 0
 214 -122 225 -121 235 -120 c 0
 245 -118 253 -116 260 -114 c 0
 267 -111 273 -109 279 -106 c 0
 285 -103 290 -101 293 -99 c 0
 296 -96 298 -94 301 -93 c 0
 304 -91 305 -90 306 -90 c 2
 306 -90 306 -91 307 -93 c 0
 307 -106 293 -122 264 -139 c 0
 235 -156 199 -165 156 -165 c 0
 114 -165 78 -151 48 -122 c 0
 18 -93 3 -52 3 0 c 0
 3 50 23 94 64 133 c 0
 104 171 148 190 195 190 c 0
 205 190 215 190 226 189 c 0
 237 188 246 186 254 185 c 0
 262 183 269 181 276 180 c 0
 282 178 287 177 291 176 c 2
 297 174 l 2
 298 174 312 190 337 222 c 0
 362 253 374 269 375 269 c 0
 387 269 432 268 510 267 c 0
 588 265 627 263 627 262 c 0
 627 259 622 250 612 234 c 0
 601 218 589 200 575 179 c 2
 532 116 l 2
 517 95 505 77 496 63 c 0
 487 49 483 42 484 42 c 2
 489 43 l 2
 492 43 496 43 501 43 c 2
 517 43 l 2
 523 43 529 42 536 41 c 0
 542 40 548 38 555 36 c 0
 562 34 568 31 573 27 c 0
 578 23 583 19 588 14 c 0
 593 9 596 2 599 -6 c 0
 602 -14 603 -23 603 -32 c 0
 603 -49 598 -69 587 -92 c 0
 576 -115 564 -138 550 -160 c 0
 535 -182 521 -203 506 -223 c 0
 491 -243 479 -259 470 -271 c 0
 460 -283 455 -289 456 -289 c 0
 458 -289 477 -289 512 -288 c 0
 547 -287 566 -287 567 -287 c 0
EndSplineSet
EndChar

StartChar: f
Encoding: 102 102 21
Width: 457
Flags: W
LayerCount: 2
Back
Fore
SplineSet
408 -229 m 0
 409 -229 412 -227 417 -223 c 0
 422 -219 428 -215 433 -212 c 0
 438 -208 440 -207 440 -208 c 0
 440 -212 435 -223 424 -241 c 0
 413 -259 406 -268 404 -268 c 0
 403 -268 379 -269 333 -270 c 0
 286 -271 262 -271 261 -271 c 0
 259 -271 262 -266 270 -256 c 0
 278 -245 289 -232 303 -215 c 0
 317 -198 331 -180 345 -161 c 0
 359 -142 371 -121 382 -100 c 0
 392 -79 397 -60 397 -44 c 0
 397 -36 396 -29 393 -24 c 0
 390 -18 387 -13 383 -10 c 0
 379 -7 375 -4 370 -2 c 0
 365 1 359 2 354 3 c 0
 349 4 343 4 338 4 c 0
 333 4 328 4 324 3 c 0
 320 2 317 2 314 1 c 2
 309 1 l 2
 307 1 314 15 329 44 c 0
 344 72 359 101 375 130 c 0
 391 159 399 173 399 174 c 0
 399 177 355 178 267 178 c 0
 266 178 258 168 241 148 c 0
 224 127 214 117 213 117 c 0
 212 117 210 117 206 118 c 0
 201 119 197 120 192 121 c 0
 187 122 180 123 173 124 c 0
 166 125 158 125 151 125 c 1
 151 69 150 -5 149 -97 c 1
 174 -96 196 -89 217 -74 c 0
 219 -72 220 -72 220 -74 c 0
 220 -79 217 -85 212 -92 c 0
 207 -99 198 -105 187 -112 c 0
 176 -119 163 -124 149 -127 c 1
 147 -249 l 2
 146 -290 146 -321 146 -342 c 2
 146 -373 l 2
 146 -393 138 -411 123 -428 c 0
 107 -444 93 -452 80 -452 c 0
 75 -452 70 -449 65 -444 c 0
 60 -439 57 -434 56 -429 c 0
 54 -424 53 -420 53 -419 c 0
 53 -418 56 -412 63 -402 c 0
 70 -392 74 -387 75 -387 c 2
 75 -391 l 2
 75 -393 75 -396 76 -399 c 0
 76 -402 77 -406 78 -409 c 0
 79 -412 80 -415 83 -417 c 0
 86 -419 89 -420 92 -420 c 0
 100 -420 105 -417 108 -412 c 0
 111 -406 112 -396 112 -382 c 0
 112 -379 112 -367 113 -344 c 0
 113 -321 113 -289 114 -249 c 0
 114 -208 114 -169 114 -132 c 1
 114 -132 l 1
 112 -132 l 2
 81 -132 55 -121 34 -98 c 0
 12 -75 1 -42 1 -1 c 0
 1 35 13 67 36 95 c 0
 59 123 86 141 117 148 c 1
 118 289 117 360 114 360 c 0
 113 360 106 355 95 344 c 0
 81 331 74 326 74 328 c 0
 74 331 86 352 111 393 c 0
 135 433 148 453 150 453 c 0
 153 453 153 352 151 150 c 1
 161 149 171 148 181 146 c 0
 191 144 199 142 205 140 c 2
 213 137 l 2
 214 137 224 150 242 175 c 2
 269 213 l 2
 270 213 280 213 298 213 c 0
 316 212 337 212 360 211 c 0
 383 210 404 210 423 209 c 0
 442 208 451 208 451 207 c 0
 451 204 442 188 424 159 c 0
 406 130 389 101 372 74 c 0
 355 47 347 33 348 33 c 2
 352 33 l 2
 354 33 357 33 360 34 c 0
 363 34 367 34 372 34 c 0
 376 33 380 33 385 32 c 0
 390 31 394 29 399 28 c 0
 404 27 408 25 412 22 c 0
 416 19 420 15 423 11 c 0
 426 6 429 1 431 -6 c 0
 433 -12 434 -19 434 -26 c 0
 434 -47 425 -74 407 -108 c 0
 388 -142 371 -171 354 -195 c 2
 328 -230 l 2
 329 -230 343 -230 369 -230 c 0
 394 -229 407 -229 408 -229 c 0
115 -93 m 1
 116 50 116 122 116 123 c 1
 66 113 41 76 41 12 c 0
 41 -15 48 -38 62 -56 c 0
 76 -74 94 -86 115 -93 c 1
EndSplineSet
EndChar

StartChar: i
Encoding: 105 105 22
Width: 1074
Flags: W
LayerCount: 2
Back
Fore
SplineSet
1067 247 m 0
 1068 244 1068 227 1068 194 c 0
 1068 161 1068 115 1068 57 c 0
 1067 -1 1067 -63 1066 -130 c 0
 1065 -196 1065 -264 1064 -333 c 0
 1063 -402 1063 -465 1062 -521 c 0
 1061 -576 1061 -622 1061 -658 c 2
 1060 -712 l 2
 1060 -714 1051 -722 1033 -735 c 0
 1015 -748 1005 -755 1003 -755 c 0
 1001 -755 1001 -512 1003 -26 c 1
 983 -58 956 -86 921 -110 c 0
 886 -133 849 -145 812 -145 c 0
 787 -145 764 -141 745 -132 c 0
 726 -123 712 -113 704 -102 c 0
 695 -91 688 -81 682 -72 c 0
 675 -63 671 -58 669 -58 c 0
 666 -58 661 -63 652 -73 c 0
 643 -83 632 -94 621 -106 c 0
 609 -118 593 -129 572 -139 c 0
 551 -149 529 -154 506 -154 c 0
 491 -154 475 -152 460 -148 c 0
 445 -144 431 -139 420 -133 c 0
 408 -127 397 -121 387 -114 c 0
 376 -107 368 -100 362 -94 c 0
 355 -87 350 -82 345 -78 c 0
 340 -74 338 -72 337 -72 c 0
 336 -72 333 -76 328 -83 c 0
 323 -90 316 -99 307 -109 c 0
 298 -119 288 -129 277 -140 c 0
 265 -150 250 -159 232 -166 c 0
 214 -173 195 -176 176 -176 c 0
 125 -176 86 -154 61 -110 c 1
 61 -124 61 -138 61 -152 c 0
 60 -165 60 -177 60 -188 c 0
 60 -198 60 -207 60 -215 c 0
 59 -223 59 -229 59 -234 c 2
 59 -241 l 2
 59 -242 54 -247 45 -254 c 0
 36 -261 26 -267 17 -274 c 0
 8 -280 3 -283 2 -283 c 0
 1 -283 1 -275 1 -258 c 0
 0 -241 0 -218 0 -191 c 0
 0 -164 0 -134 1 -101 c 0
 1 -68 1 -35 1 -2 c 0
 1 32 1 63 2 90 c 0
 2 117 2 139 3 157 c 0
 3 175 3 184 3 185 c 0
 3 186 13 197 34 216 c 0
 54 235 65 245 66 245 c 0
 67 245 67 221 67 174 c 0
 66 127 65 74 64 16 c 1
 93 69 139 96 202 96 c 0
 223 96 243 93 262 88 c 0
 280 83 295 76 306 69 c 0
 317 61 326 53 334 45 c 0
 342 37 348 30 353 25 c 0
 357 20 360 17 361 17 c 0
 362 17 365 21 370 28 c 0
 375 35 382 44 391 55 c 0
 400 66 411 76 425 87 c 0
 438 98 457 107 480 115 c 0
 503 122 528 126 556 126 c 0
 581 126 603 123 623 116 c 0
 643 109 658 101 668 92 c 0
 678 83 687 76 694 69 c 0
 701 62 706 58 708 58 c 0
 710 58 716 62 727 71 c 0
 737 79 749 88 762 98 c 0
 775 108 793 117 815 125 c 0
 837 133 859 137 881 137 c 0
 938 137 979 124 1003 97 c 1
 1003 186 l 2
 1003 188 1013 199 1034 218 c 0
 1055 237 1066 247 1067 247 c 0
EndSplineSet
EndChar

StartChar: j
Encoding: 106 106 23
Width: 691
Flags: W
LayerCount: 2
Back
Fore
SplineSet
686 242 m 0
 687 242 687 227 687 196 c 0
 687 165 687 124 687 74 c 0
 686 24 686 -31 685 -91 c 0
 684 -151 684 -211 683 -272 c 0
 682 -333 682 -388 682 -438 c 0
 681 -487 681 -528 681 -560 c 2
 680 -608 l 2
 680 -609 672 -616 655 -628 c 0
 638 -639 628 -645 627 -645 c 0
 624 -645 623 -437 626 -22 c 1
 610 -51 586 -77 554 -99 c 0
 521 -121 485 -132 446 -132 c 0
 426 -132 407 -129 390 -123 c 0
 373 -116 359 -108 348 -99 c 0
 337 -90 328 -80 320 -71 c 0
 312 -62 306 -54 302 -48 c 0
 297 -41 295 -38 294 -38 c 0
 293 -38 291 -41 286 -46 c 0
 281 -51 276 -57 270 -64 c 0
 263 -71 255 -78 246 -87 c 0
 236 -96 226 -104 216 -111 c 0
 205 -118 193 -124 180 -129 c 0
 167 -134 154 -136 141 -136 c 0
 98 -136 64 -124 39 -99 c 0
 14 -74 2 -48 2 -21 c 0
 2 -12 4 -3 7 8 c 0
 10 18 14 29 20 41 c 0
 26 53 35 64 46 75 c 0
 57 86 69 96 84 105 c 0
 98 114 116 122 137 127 c 0
 158 132 181 135 206 135 c 0
 226 135 244 132 259 127 c 0
 274 122 285 115 293 107 c 0
 300 99 306 91 311 84 c 0
 316 76 319 69 322 64 c 0
 324 58 326 55 327 55 c 0
 328 55 335 61 350 72 c 0
 365 83 383 95 406 106 c 0
 429 117 450 123 470 123 c 0
 551 123 603 105 626 69 c 1
 627 116 627 156 627 188 c 0
 627 190 637 200 656 217 c 0
 675 234 685 242 686 242 c 0
EndSplineSet
EndChar

StartChar: k
Encoding: 107 107 24
Width: 375
Flags: W
LayerCount: 2
Back
Fore
SplineSet
372 244 m 0
 373 241 373 226 373 197 c 0
 372 168 372 131 371 84 c 0
 370 37 370 -9 369 -52 c 0
 368 -95 367 -133 366 -166 c 2
 365 -215 l 2
 365 -217 356 -224 338 -237 c 0
 320 -249 310 -255 308 -255 c 0
 307 -255 307 -198 307 -83 c 1
 272 -118 229 -136 176 -136 c 0
 118 -136 80 -116 61 -76 c 1
 59 -153 58 -199 58 -215 c 0
 58 -217 49 -224 31 -237 c 0
 13 -249 3 -255 2 -255 c 0
 1 -255 1 -247 0 -231 c 0
 0 -215 0 -194 0 -168 c 2
 0 -83 l 2
 0 -52 0 -20 0 11 c 0
 1 42 1 71 1 97 c 0
 2 122 2 144 2 161 c 2
 2 187 l 2
 2 188 12 198 33 217 c 0
 53 235 64 244 65 244 c 0
 66 244 66 225 66 186 c 0
 65 147 64 102 63 51 c 1
 79 72 101 91 128 107 c 0
 155 123 180 131 201 131 c 0
 242 131 277 119 308 95 c 1
 308 124 l 2
 308 134 308 143 309 150 c 0
 309 157 309 163 309 169 c 2
 309 182 l 1
 309 187 l 2
 309 188 319 198 340 217 c 0
 360 235 371 244 372 244 c 0
EndSplineSet
EndChar

StartChar: l
Encoding: 108 108 25
Width: 421
Flags: W
LayerCount: 2
Back
Fore
SplineSet
204 141 m 0
 228 141 252 139 276 134 c 0
 299 129 322 122 345 113 c 0
 367 103 385 89 399 72 c 0
 413 54 420 34 420 11 c 0
 420 -18 408 -44 383 -68 c 0
 358 -92 328 -110 293 -123 c 0
 258 -135 223 -141 189 -141 c 0
 135 -141 90 -129 55 -104 c 0
 19 -79 1 -45 1 0 c 0
 1 25 12 49 33 71 c 0
 54 93 80 110 111 123 c 0
 142 135 173 141 204 141 c 0
EndSplineSet
EndChar

StartChar: m
Encoding: 109 109 26
Width: 346
Flags: W
LayerCount: 2
Back
Fore
SplineSet
320 138 m 0
 329 138 336 104 340 36 c 0
 343 -32 344 -120 342 -229 c 0
 340 -337 338 -419 337 -476 c 0
 336 -532 334 -586 332 -639 c 2
 332 -645 l 1
 332 -646 l 2
 332 -650 321 -662 300 -683 c 0
 279 -704 266 -714 263 -714 c 2
 266 -79 l 2
 266 -78 265 -79 264 -80 c 0
 263 -81 261 -82 258 -85 c 0
 255 -87 251 -90 247 -93 c 0
 242 -96 237 -99 231 -103 c 0
 225 -106 219 -110 212 -114 c 0
 205 -117 197 -121 188 -124 c 0
 179 -127 170 -130 161 -133 c 0
 151 -136 140 -138 129 -140 c 0
 117 -141 105 -142 93 -142 c 0
 58 -142 34 -135 21 -122 c 0
 8 -108 1 -88 1 -61 c 0
 1 -50 3 -39 6 -27 c 0
 9 -14 15 0 23 16 c 0
 30 31 42 46 58 60 c 0
 74 73 93 86 115 98 c 0
 137 110 166 120 201 127 c 0
 236 134 276 138 320 138 c 0
EndSplineSet
EndChar

StartChar: n
Encoding: 110 110 27
Width: 357
Flags: W
LayerCount: 2
Back
Fore
SplineSet
350 39 m 0
 351 37 351 21 351 -8 c 0
 350 -37 350 -77 349 -128 c 0
 348 -179 348 -235 347 -294 c 0
 346 -353 346 -415 345 -478 c 0
 344 -541 343 -598 342 -650 c 0
 341 -702 341 -746 340 -783 c 0
 339 -820 339 -841 339 -847 c 0
 339 -856 329 -872 310 -895 c 0
 290 -918 276 -929 269 -929 c 0
 258 -929 237 -900 205 -842 c 0
 172 -783 142 -723 115 -661 c 0
 88 -599 74 -562 74 -550 c 0
 74 -540 83 -527 101 -510 c 0
 118 -493 140 -484 166 -484 c 0
 173 -484 173 -486 168 -491 c 0
 151 -504 142 -514 141 -522 c 0
 140 -523 140 -525 140 -526 c 0
 140 -537 158 -575 195 -641 c 0
 232 -707 255 -741 264 -743 c 1
 265 -624 270 -402 277 -75 c 1
 251 -96 222 -112 191 -125 c 0
 160 -137 129 -143 100 -143 c 0
 92 -143 83 -142 73 -140 c 0
 63 -137 52 -133 41 -128 c 0
 29 -123 19 -114 12 -103 c 0
 4 -91 0 -77 0 -60 c 0
 0 -35 10 -11 29 15 c 0
 48 40 71 61 98 79 c 0
 125 96 152 111 179 122 c 0
 206 133 227 139 243 139 c 0
 256 139 271 136 287 130 c 0
 302 123 317 112 330 96 c 0
 343 80 350 61 350 39 c 0
EndSplineSet
EndChar

StartChar: o
Encoding: 111 111 28
Width: 363
Flags: W
LayerCount: 2
Back
Fore
SplineSet
1 -54 m 0
 1 -4 30 42 87 83 c 0
 139 121 192 140 247 141 c 0
 304 142 338 121 349 76 c 0
 351 67 352 57 352 46 c 0
 352 42 354 -95 357 -367 c 0
 360 -638 361 -779 361 -790 c 0
 361 -798 349 -808 326 -820 c 0
 302 -832 286 -838 278 -838 c 0
 271 -838 252 -817 221 -774 c 0
 190 -731 161 -685 134 -637 c 0
 106 -588 92 -557 92 -544 c 0
 92 -533 99 -520 114 -505 c 0
 129 -490 138 -482 142 -482 c 0
 144 -483 145 -485 144 -489 c 0
 143 -493 142 -498 141 -505 c 0
 139 -512 138 -515 138 -516 c 0
 138 -519 165 -556 219 -625 c 0
 273 -694 302 -729 306 -730 c 1
 306 -624 l 2
 306 -623 280 -588 229 -518 c 0
 178 -448 152 -408 152 -399 c 0
 152 -390 160 -376 175 -355 c 0
 190 -334 199 -323 203 -323 c 0
 204 -323 205 -324 206 -327 c 0
 206 -330 206 -333 206 -338 c 0
 206 -342 206 -346 206 -350 c 0
 205 -354 205 -358 205 -362 c 2
 205 -369 l 2
 205 -372 213 -383 230 -402 c 0
 247 -421 264 -439 281 -456 c 0
 298 -473 306 -482 306 -481 c 2
 306 -466 l 1
 306 -429 l 1
 306 -378 l 2
 306 -358 306 -337 307 -316 c 0
 307 -295 307 -273 307 -252 c 0
 307 -231 307 -210 307 -191 c 0
 306 -172 306 -155 306 -140 c 0
 306 -125 306 -114 306 -105 c 0
 305 -96 305 -91 304 -91 c 0
 303 -91 294 -95 278 -104 c 0
 261 -112 240 -120 215 -129 c 0
 189 -137 164 -141 139 -141 c 0
 100 -141 67 -134 41 -119 c 0
 14 -104 1 -82 1 -54 c 0
EndSplineSet
EndChar

StartChar: p
Encoding: 112 112 29
Width: 199
Flags: W
LayerCount: 2
Back
Fore
SplineSet
131 -96 m 1
 87 -57 l 1
 32 -75 l 1
 44 -18 l 1
 0 21 l 1
 56 39 l 1
 68 96 l 1
 112 57 l 1
 167 75 l 1
 155 18 l 1
 198 -21 l 1
 143 -39 l 1
 131 -96 l 1
EndSplineSet
EndChar

StartChar: q
Encoding: 113 113 30
Width: 1087
Flags: W
LayerCount: 2
Back
Fore
SplineSet
1079 245 m 0
 1080 245 1080 228 1080 195 c 0
 1080 162 1080 118 1080 65 c 0
 1079 12 1079 -47 1078 -112 c 0
 1077 -176 1077 -240 1076 -305 c 0
 1075 -370 1074 -429 1073 -482 c 0
 1072 -535 1072 -578 1072 -612 c 2
 1071 -663 l 2
 1071 -665 1061 -672 1042 -685 c 0
 1022 -698 1011 -704 1010 -704 c 0
 1007 -704 1006 -488 1009 -56 c 1
 987 -76 962 -93 934 -106 c 0
 906 -119 879 -126 852 -126 c 0
 823 -126 799 -124 778 -120 c 0
 757 -115 742 -110 733 -104 c 0
 723 -98 716 -92 711 -86 c 0
 706 -80 702 -75 700 -71 c 0
 698 -66 696 -64 694 -64 c 0
 692 -64 689 -66 686 -71 c 0
 682 -75 677 -80 670 -87 c 0
 663 -93 654 -99 643 -106 c 0
 632 -112 616 -117 595 -122 c 0
 574 -126 551 -128 525 -128 c 0
 503 -128 483 -126 465 -122 c 0
 447 -118 433 -113 423 -108 c 0
 413 -102 405 -96 398 -91 c 0
 391 -85 385 -80 382 -76 c 0
 379 -72 377 -70 376 -70 c 0
 375 -70 369 -74 360 -82 c 0
 350 -90 339 -99 326 -108 c 0
 313 -117 296 -126 274 -134 c 0
 251 -142 228 -146 203 -146 c 0
 141 -146 97 -132 70 -105 c 1
 69 -114 69 -124 69 -133 c 0
 69 -142 69 -150 68 -157 c 0
 68 -164 68 -171 68 -178 c 2
 68 -196 l 2
 68 -201 68 -205 67 -209 c 0
 67 -212 67 -215 67 -217 c 2
 67 -220 l 2
 67 -221 62 -225 52 -232 c 0
 42 -239 32 -245 22 -251 c 0
 12 -257 7 -260 6 -260 c 0
 5 -260 5 -255 4 -245 c 0
 4 -235 4 -222 3 -205 c 0
 3 -188 3 -168 3 -147 c 2
 3 -77 l 2
 3 -52 3 -28 3 -4 c 0
 4 20 4 43 4 66 c 0
 5 88 5 108 5 125 c 0
 5 142 5 155 5 166 c 0
 6 177 6 182 6 183 c 0
 6 185 17 195 39 213 c 0
 61 231 73 240 75 240 c 2
 75 174 l 2
 75 150 74 100 73 25 c 1
 94 54 123 80 160 101 c 0
 197 122 231 132 263 132 c 0
 288 132 311 129 330 124 c 0
 349 119 363 113 371 106 c 0
 379 99 386 92 391 87 c 0
 396 82 400 79 402 79 c 0
 403 79 407 81 413 85 c 0
 418 89 426 94 436 100 c 0
 445 106 457 112 470 118 c 0
 483 124 499 129 520 133 c 0
 541 137 563 139 586 139 c 0
 617 139 644 135 667 128 c 0
 690 120 707 111 717 102 c 0
 726 93 734 84 741 77 c 0
 748 69 752 65 754 65 c 0
 757 65 763 69 770 76 c 0
 777 83 785 91 794 100 c 0
 803 109 817 117 838 124 c 0
 859 131 883 134 911 134 c 0
 952 134 985 128 1010 117 c 1
 1010 141 l 1
 1010 160 l 1
 1010 175 l 2
 1010 179 1010 182 1011 185 c 2
 1011 188 l 2
 1011 189 1017 194 1028 204 c 0
 1039 213 1050 223 1061 232 c 0
 1072 241 1078 245 1079 245 c 0
220 -77 m 0
 265 -77 300 -72 324 -61 c 0
 347 -50 359 -35 359 -18 c 0
 359 -9 354 1 343 14 c 0
 332 26 317 37 296 48 c 0
 275 58 252 63 229 63 c 0
 187 63 153 54 128 35 c 0
 103 16 90 -2 90 -17 c 0
 90 -27 96 -37 107 -46 c 0
 118 -55 134 -63 155 -69 c 0
 175 -74 197 -77 220 -77 c 0
572 -49 m 0
 613 -49 642 -46 660 -40 c 0
 678 -34 687 -23 687 -6 c 0
 687 3 680 13 666 26 c 0
 651 38 633 49 611 58 c 0
 589 67 569 72 551 72 c 0
 514 72 483 68 458 59 c 0
 433 50 421 40 421 29 c 0
 421 11 439 -7 474 -24 c 0
 509 -41 541 -49 572 -49 c 0
871 -61 m 0
 906 -61 937 -55 963 -43 c 0
 988 -31 1001 -16 1001 3 c 0
 1001 18 988 33 963 48 c 0
 937 62 908 69 876 69 c 0
 852 69 831 66 813 59 c 0
 795 52 782 43 775 34 c 0
 767 25 763 15 763 5 c 0
 763 -10 774 -25 797 -40 c 0
 820 -54 844 -61 871 -61 c 0
EndSplineSet
EndChar

StartChar: r
Encoding: 114 114 31
Width: 685
Flags: W
LayerCount: 2
Back
Fore
SplineSet
676 211 m 0
 677 211 677 195 677 164 c 0
 677 133 677 92 677 41 c 0
 676 -10 676 -65 676 -126 c 0
 675 -187 675 -248 674 -309 c 0
 673 -370 673 -426 672 -477 c 0
 671 -527 671 -568 671 -601 c 2
 670 -649 l 2
 670 -650 661 -657 644 -669 c 0
 627 -681 617 -687 616 -687 c 0
 615 -687 615 -656 615 -594 c 0
 614 -532 614 -440 615 -317 c 0
 615 -194 615 -108 615 -57 c 1
 596 -82 569 -102 534 -118 c 0
 499 -133 464 -141 427 -141 c 0
 408 -141 392 -139 378 -136 c 0
 363 -132 352 -127 344 -121 c 0
 335 -115 328 -108 323 -101 c 0
 317 -94 313 -87 311 -80 c 0
 308 -73 306 -66 305 -60 c 0
 304 -54 303 -49 303 -46 c 0
 302 -42 302 -40 301 -40 c 0
 300 -40 298 -43 293 -50 c 0
 288 -56 281 -64 272 -73 c 0
 263 -82 252 -91 241 -100 c 0
 229 -109 215 -116 198 -123 c 0
 181 -129 164 -132 146 -132 c 0
 108 -132 79 -121 60 -98 c 1
 59 -142 58 -181 58 -214 c 0
 58 -215 49 -222 32 -234 c 0
 15 -245 5 -251 4 -251 c 0
 3 -251 3 -243 3 -228 c 2
 3 -169 l 1
 3 -88 l 2
 3 -58 3 -28 3 2 c 0
 4 31 4 58 4 83 c 0
 4 108 4 128 4 144 c 2
 5 168 l 2
 5 169 15 179 34 196 c 0
 53 213 63 222 64 222 c 0
 65 222 65 215 65 200 c 2
 65 137 l 2
 65 110 64 83 63 54 c 1
 102 103 153 128 217 128 c 0
 239 128 259 126 276 121 c 0
 293 116 307 110 316 103 c 0
 325 96 333 89 339 82 c 0
 344 75 349 69 352 64 c 0
 355 59 356 57 357 57 c 0
 358 57 364 60 373 67 c 0
 382 74 393 81 406 89 c 0
 418 97 433 105 451 112 c 0
 468 119 485 122 500 122 c 0
 555 122 593 111 616 88 c 1
 617 116 617 139 617 157 c 0
 617 158 627 168 646 185 c 0
 665 202 675 211 676 211 c 0
170 -72 m 0
 199 -72 227 -64 254 -49 c 0
 281 -33 295 -16 295 2 c 0
 295 21 283 37 260 48 c 0
 237 60 208 66 173 66 c 0
 148 66 127 60 110 47 c 0
 92 35 83 22 83 8 c 0
 83 -16 92 -35 112 -50 c 0
 131 -65 150 -72 170 -72 c 0
464 -79 m 0
 495 -79 525 -73 554 -61 c 0
 583 -48 597 -32 597 -13 c 0
 597 4 586 21 564 38 c 0
 542 55 515 64 484 64 c 0
 451 64 423 57 400 43 c 0
 377 30 365 13 365 -6 c 0
 365 -24 373 -41 388 -56 c 0
 403 -71 429 -79 464 -79 c 0
EndSplineSet
EndChar

StartChar: s
Encoding: 115 115 32
Width: 397
Flags: W
LayerCount: 2
Back
Fore
SplineSet
394 247 m 0
 395 244 395 228 395 198 c 0
 395 167 395 127 394 77 c 0
 393 27 392 -21 391 -67 c 0
 390 -112 389 -153 388 -188 c 2
 387 -240 l 2
 387 -241 378 -249 359 -262 c 0
 340 -275 329 -282 328 -282 c 0
 326 -282 325 -216 325 -85 c 1
 290 -124 243 -143 184 -143 c 0
 131 -143 91 -130 64 -103 c 1
 64 -126 64 -148 64 -171 c 0
 63 -193 63 -210 63 -222 c 2
 62 -240 l 2
 62 -242 53 -250 34 -263 c 0
 15 -276 4 -282 2 -282 c 0
 1 -282 1 -274 1 -257 c 0
 0 -240 0 -217 0 -190 c 0
 0 -163 0 -133 1 -100 c 0
 1 -67 1 -33 1 0 c 0
 1 33 1 64 2 91 c 0
 2 118 2 141 3 159 c 0
 3 177 3 186 3 187 c 0
 3 189 14 200 35 219 c 0
 56 238 68 247 69 247 c 0
 70 247 70 241 70 229 c 0
 70 216 70 195 70 166 c 0
 69 136 69 110 69 87 c 1
 87 103 109 116 134 125 c 0
 159 134 182 139 201 139 c 0
 255 139 297 127 327 104 c 1
 328 137 328 164 328 187 c 0
 328 189 339 200 360 219 c 0
 381 238 393 247 394 247 c 0
199 -80 m 0
 262 -80 305 -72 326 -57 c 1
 326 21 l 1
 311 34 291 46 264 55 c 0
 237 64 211 68 186 68 c 0
 130 68 91 61 68 46 c 1
 66 -23 l 1
 80 -39 99 -53 122 -64 c 0
 145 -75 170 -80 199 -80 c 0
EndSplineSet
EndChar

StartChar: t
Encoding: 116 116 33
Width: 417
Flags: W
LayerCount: 2
Back
Fore
SplineSet
201 139 m 0
 224 139 248 137 272 132 c 0
 295 127 318 120 341 111 c 0
 363 101 381 87 395 70 c 0
 409 53 416 32 416 9 c 0
 416 -20 404 -46 379 -70 c 0
 354 -93 324 -111 289 -123 c 0
 254 -135 220 -141 186 -141 c 0
 132 -141 88 -129 53 -105 c 0
 18 -81 0 -46 0 -1 c 0
 0 36 22 68 65 97 c 0
 108 125 153 139 201 139 c 0
221 -108 m 0
 253 -108 281 -100 304 -83 c 0
 327 -66 338 -41 338 -6 c 0
 338 19 319 44 281 69 c 0
 242 94 210 106 184 106 c 0
 175 106 166 105 156 103 c 0
 146 100 135 96 123 89 c 0
 111 82 101 72 94 57 c 0
 86 42 82 25 82 4 c 0
 82 -23 99 -48 133 -72 c 0
 167 -96 196 -108 221 -108 c 0
EndSplineSet
EndChar

StartChar: u
Encoding: 117 117 34
Width: 294
Flags: W
LayerCount: 2
Back
Fore
SplineSet
284 18 m 0
 285 14 285 -7 285 -44 c 0
 284 -81 284 -131 284 -192 c 0
 283 -253 283 -312 283 -369 c 0
 282 -426 282 -475 282 -518 c 0
 281 -561 281 -582 281 -583 c 0
 281 -590 277 -604 270 -626 c 0
 262 -647 255 -658 250 -658 c 0
 246 -658 240 -562 232 -370 c 2
 220 -82 l 2
 219 -82 212 -87 199 -96 c 0
 185 -105 166 -115 142 -124 c 0
 117 -133 92 -138 65 -138 c 0
 48 -138 32 -130 19 -115 c 0
 5 -99 -2 -76 -2 -47 c 0
 -2 -22 6 3 21 27 c 0
 36 51 55 71 77 87 c 0
 99 102 122 115 145 124 c 0
 168 133 187 138 203 138 c 0
 226 138 243 134 255 126 c 0
 266 118 274 106 278 90 c 0
 282 73 284 49 284 18 c 0
137 -95 m 0
 157 -95 180 -81 205 -54 c 0
 230 -27 243 -1 243 24 c 0
 243 45 237 65 224 83 c 0
 211 100 196 109 180 109 c 0
 156 109 130 96 103 69 c 0
 75 42 61 14 61 -16 c 0
 61 -40 68 -59 81 -73 c 0
 94 -88 113 -95 137 -95 c 0
EndSplineSet
EndChar

StartChar: v
Encoding: 118 118 35
Width: 348
Flags: W
LayerCount: 2
Back
Fore
SplineSet
343 40 m 1
 344 40 343 -29 342 -167 c 0
 340 -304 338 -447 336 -596 c 0
 333 -744 332 -823 332 -834 c 0
 332 -843 322 -859 303 -882 c 0
 284 -904 270 -915 263 -915 c 0
 252 -915 231 -886 200 -829 c 0
 169 -771 140 -712 113 -651 c 0
 86 -590 73 -553 73 -541 c 0
 73 -538 75 -533 79 -526 c 0
 83 -519 89 -511 96 -504 c 0
 103 -496 112 -489 124 -484 c 0
 136 -479 149 -476 163 -476 c 0
 169 -476 169 -478 164 -483 c 0
 147 -498 138 -509 138 -518 c 0
 138 -529 156 -567 192 -632 c 0
 227 -697 250 -730 259 -731 c 1
 260 -616 264 -396 271 -73 c 1
 246 -93 218 -109 187 -122 c 0
 156 -134 127 -140 98 -140 c 0
 90 -140 81 -139 72 -137 c 0
 62 -134 51 -130 40 -125 c 0
 29 -120 19 -111 12 -100 c 0
 4 -88 0 -74 0 -57 c 0
 0 -33 9 -9 29 16 c 0
 48 41 70 62 96 80 c 0
 122 97 148 112 175 123 c 0
 201 134 222 139 238 139 c 0
 261 139 284 130 308 113 c 0
 331 96 343 71 343 40 c 1
156 -88 m 0
 174 -88 193 -84 212 -77 c 0
 231 -69 249 -56 265 -39 c 0
 280 -22 288 -2 288 20 c 0
 288 41 281 60 267 78 c 0
 253 96 233 105 208 105 c 0
 185 105 154 92 117 65 c 0
 79 38 60 12 60 -13 c 0
 60 -34 68 -51 83 -66 c 0
 98 -81 123 -88 156 -88 c 0
EndSplineSet
EndChar

StartChar: w
Encoding: 119 119 36
Width: 350
Flags: W
LayerCount: 2
Back
Fore
SplineSet
0 -55 m 0
 0 -4 28 42 84 83 c 0
 135 120 187 139 240 140 c 0
 295 140 327 118 337 73 c 0
 338 64 339 55 339 45 c 0
 339 41 341 -96 344 -366 c 0
 347 -636 348 -776 348 -787 c 0
 348 -795 337 -805 314 -817 c 0
 291 -829 276 -835 269 -835 c 0
 262 -835 243 -814 214 -771 c 0
 184 -728 156 -683 129 -635 c 0
 102 -586 89 -555 89 -542 c 0
 89 -532 96 -519 110 -504 c 0
 124 -488 133 -480 137 -480 c 0
 139 -481 140 -484 139 -488 c 0
 138 -492 137 -497 136 -504 c 0
 134 -510 133 -514 133 -515 c 0
 133 -518 159 -553 211 -622 c 0
 263 -691 291 -726 295 -727 c 1
 295 -622 l 2
 295 -621 270 -586 220 -517 c 0
 170 -447 145 -407 145 -398 c 0
 145 -389 153 -375 168 -354 c 0
 183 -333 192 -322 196 -322 c 0
 197 -322 198 -323 199 -326 c 0
 199 -329 199 -332 199 -337 c 0
 199 -341 199 -345 199 -349 c 0
 198 -353 198 -357 198 -361 c 2
 198 -368 l 2
 198 -371 206 -382 222 -401 c 0
 238 -420 254 -438 271 -455 c 0
 287 -472 295 -480 295 -479 c 2
 296 -465 l 2
 296 -455 296 -443 296 -428 c 2
 296 -377 l 1
 296 -316 l 1
 296 -252 l 1
 296 -192 l 2
 296 -173 296 -156 296 -141 c 0
 295 -126 295 -114 295 -105 c 0
 294 -96 294 -92 293 -92 c 0
 292 -92 283 -96 268 -104 c 0
 252 -112 232 -120 207 -129 c 0
 182 -137 158 -141 134 -141 c 0
 96 -141 64 -134 39 -119 c 0
 13 -104 0 -82 0 -55 c 0
161 -88 m 0
 174 -88 188 -86 203 -83 c 0
 217 -79 231 -73 245 -65 c 0
 259 -57 271 -46 280 -32 c 0
 289 -17 293 0 293 19 c 0
 293 46 286 67 271 81 c 0
 256 95 237 102 216 102 c 0
 204 102 190 100 174 95 c 0
 158 90 142 83 125 74 c 0
 108 65 93 53 82 36 c 0
 70 19 64 1 64 -19 c 0
 64 -39 73 -56 91 -69 c 0
 109 -82 132 -88 161 -88 c 0
EndSplineSet
EndChar

StartChar: x
Encoding: 120 120 37
Width: 199
Flags: W
LayerCount: 2
Back
Fore
SplineSet
131 -96 m 1
 87 -57 l 1
 32 -75 l 1
 44 -18 l 1
 0 21 l 1
 56 39 l 1
 68 96 l 1
 112 57 l 1
 167 75 l 1
 155 18 l 1
 198 -21 l 1
 143 -39 l 1
 131 -96 l 1
EndSplineSet
EndChar

StartChar: y
Encoding: 121 121 38
Width: 608
Flags: W
LayerCount: 2
Back
Fore
SplineSet
58 -131 m 2
 58 -139 57 -149 57 -162 c 2
 57 -186 l 2
 57 -191 57 -196 57 -203 c 2
 57 -209 l 1
 57 -209 53 -213 44 -219 c 0
 38 -224 30 -230 20 -236 c 0
 13 -242 9 -245 7 -245 c 2
 7 -245 7 -237 7 -222 c 0
 6 -213 6 -194 6 -166 c 0
 6 -133 6 -107 7 -88 c 2
 7 -2 l 2
 7 47 7 93 8 134 c 2
 8 158 l 2
 8 159 17 168 34 185 c 0
 52 201 61 210 63 210 c 2
 63 210 63 189 63 149 c 2
 62 78 l 1
 67 81 72 85 78 89 c 0
 103 106 138 115 183 115 c 0
 217 115 242 107 258 91 c 0
 268 80 277 67 283 54 c 0
 285 49 286 46 287 46 c 2
 287 46 288 47 289 48 c 0
 291 49 293 50 297 53 c 0
 300 56 303 58 307 61 c 0
 321 72 338 82 357 91 c 0
 377 100 394 105 410 105 c 0
 480 105 525 89 544 58 c 1
 545 85 545 119 545 161 c 0
 545 162 553 170 570 185 c 0
 586 200 595 207 596 207 c 0
 597 207 597 194 597 167 c 0
 597 141 596 58 595 -79 c 0
 595 -89 595 -133 594 -210 c 0
 593 -288 593 -343 593 -377 c 0
 592 -406 592 -441 592 -483 c 2
 591 -524 l 2
 591 -526 584 -531 569 -541 c 0
 555 -551 547 -556 545 -556 c 0
 542 -556 542 -377 544 -20 c 1
 537 -33 529 -45 518 -56 c 0
 507 -68 495 -78 482 -86 c 0
 469 -95 454 -102 438 -107 c 0
 422 -112 406 -115 390 -115 c 0
 354 -115 326 -105 305 -86 c 0
 287 -70 274 -55 266 -42 c 0
 261 -36 259 -34 259 -34 c 2
 258 -34 256 -36 252 -40 c 0
 250 -42 245 -47 238 -55 c 0
 225 -70 209 -83 192 -97 c 0
 172 -111 150 -118 127 -118 c 0
 101 -118 78 -112 58 -100 c 1
 58 -131 l 2
EndSplineSet
EndChar

StartChar: I
Encoding: 128 73 41
Width: 640
Flags: W
LayerCount: 2
Back
Fore
SplineSet
336 149 m 2
 335 149 328 150 317 152 c 0
 305 154 292 156 279 157 c 0
 266 158 250 159 233 160 c 0
 216 160 199 158 184 153 c 0
 169 148 154 140 141 131 c 0
 128 121 117 106 109 87 c 0
 101 67 97 43 97 16 c 0
 97 -13 104 -38 119 -59 c 0
 133 -80 151 -96 173 -106 c 0
 194 -116 217 -121 241 -121 c 0
 253 -121 264 -120 274 -119 c 0
 284 -117 292 -115 299 -113 c 0
 306 -110 312 -108 318 -105 c 0
 324 -102 329 -100 332 -98 c 0
 335 -95 337 -93 340 -92 c 0
 343 -90 344 -89 345 -89 c 2
 345 -89 345 -90 346 -92 c 0
 346 -105 332 -121 303 -138 c 0
 274 -155 238 -164 195 -164 c 0
 153 -164 117 -150 87 -121 c 0
 57 -92 42 -51 42 1 c 0
 42 51 62 95 103 134 c 0
 143 172 187 191 234 191 c 0
 244 191 254 191 265 190 c 0
 276 189 285 187 293 186 c 0
 301 184 308 182 315 181 c 0
 321 179 326 178 330 177 c 2
 336 175 l 1
 336 149 l 2
EndSplineSet
EndChar

StartChar: K
Encoding: 129 75 42
Width: 457
Flags: WO
LayerCount: 2
Back
Fore
SplineSet
139 -133 m 1
 140 10 140 82 140 83 c 1
 90 73 65 36 65 -28 c 0
 65 -55 72 -78 86 -96 c 0
 100 -114 118 -126 139 -133 c 1
237 77 m 2
 236 77 234 77 230 78 c 0
 225 79 221 80 216 81 c 0
 211 82 204 83 197 84 c 0
 190 85 182 85 175 85 c 1
 175 29 174 -45 173 -137 c 1
 198 -136 220 -129 241 -114 c 0
 243 -112 244 -112 244 -114 c 0
 244 -119 241 -125 236 -132 c 0
 231 -139 222 -145 211 -152 c 0
 200 -159 187 -164 173 -167 c 1
 171 -289 l 2
 170 -330 170 -361 170 -382 c 2
 170 -413 l 2
 170 -433 162 -451 147 -468 c 0
 131 -484 117 -492 104 -492 c 0
 99 -492 94 -489 89 -484 c 0
 84 -479 81 -474 80 -469 c 0
 78 -464 77 -460 77 -459 c 0
 77 -458 80 -452 87 -442 c 0
 94 -432 98 -427 99 -427 c 2
 99 -431 l 2
 99 -433 99 -436 100 -439 c 0
 100 -442 101 -446 102 -449 c 0
 103 -452 104 -455 107 -457 c 0
 110 -459 113 -460 116 -460 c 0
 124 -460 129 -457 132 -452 c 0
 135 -446 136 -436 136 -422 c 0
 136 -419 136 -407 137 -384 c 0
 137 -361 137 -329 138 -289 c 0
 138 -248 138 -209 138 -172 c 1
 136 -172 l 2
 105 -172 79 -161 58 -138 c 0
 36 -115 25 -82 25 -41 c 0
 25 -5 37 27 60 55 c 0
 83 83 110 101 141 108 c 1
 142 249 141 320 138 320 c 0
 137 320 130 315 119 304 c 0
 105 291 98 286 98 288 c 0
 98 291 110 312 135 353 c 0
 159 393 172 413 174 413 c 0
 177 413 177 312 175 110 c 1
 185 109 195 108 205 106 c 0
 215 104 223 102 229 100 c 2
 237 97 l 1
 237 77 l 2
EndSplineSet
EndChar

